<?xml version="1.0" encoding="utf-8"?>
<!-- Generator: Adobe Illustrator 18.1.1, SVG Export Plug-In . SVG Version: 6.00 Build 0)  -->
<svg version="1.1" id="Слой_1" xmlns="http://www.w3.org/2000/svg" xmlns:xlink="http://www.w3.org/1999/xlink" x="0px" y="0px"
	 viewBox="0 0 1200 946.6" enable-background="new 0 0 1200 946.6" xml:space="preserve">
<g>
	<defs>
		<rect id="SVGID_1_" x="0" y="0" width="1200" height="946.6"/>
	</defs>
	<clipPath id="SVGID_2_">
		<use xlink:href="#SVGID_1_"  overflow="visible"/>
	</clipPath>
	<g clip-path="url(#SVGID_2_)">
		<g opacity="0.2">
			<polygon fill="#5393B6" points="-126.8,89.7 248.7,36.7 1308,116.2 1308,906.2 -126.8,906.2 			"/>
		</g>
		<g opacity="0.2">
			<polygon fill="#5393B6" points="1308,906.2 1308,137.5 1146.7,45.5 -126.8,162.7 -126.8,906.2 			"/>
		</g>
		<g opacity="0.2">
			<polygon fill="#5393B6" points="663.8,38.6 -126.8,121.6 -130.4,906.2 1308,906.2 1308,158.6 			"/>
		</g>
		<g opacity="0.2">
			<polygon fill="#5393B6" points="983.4,73.6 -130.4,217.8 -130.4,906.2 1308,906.2 1308,208.5 			"/>
		</g>
		<g opacity="0.2">
			<polygon fill="#5393B6" points="307.6,72 -126.8,201.1 -130.4,906.2 1308,906.2 1308,271 			"/>
		</g>
		<g opacity="0.2">
			<polygon fill="#407088" points="965.2,135.6 -130.4,349.7 -130.4,906.2 1308,906.2 1308,325.9 			"/>
		</g>
		<g>
			<g opacity="0.2">
				<polygon fill="#407088" points="529.3,174.4 -130.4,398.1 -130.4,906.2 1308,906.2 1308,383.2 				"/>
			</g>
		</g>
		<g opacity="0.2">
			<polygon fill="#407088" points="959.8,232.5 -130.4,445.4 -130.4,906.2 1301.4,906.2 1301.4,438.1 			"/>
		</g>
		<g opacity="0.2">
			<polygon fill="#407088" points="1308,906.2 1308,473.8 864.3,360.5 -129.5,492.4 -129.5,906.2 			"/>
		</g>
		<g opacity="0.2">
			<polygon fill="#28475D" points="878.6,407.1 -130.4,538.4 -130.4,906.2 1308,906.2 1308,514.7 			"/>
		</g>
		<g opacity="0.2">
			<polygon fill="#28475D" points="925.6,467.7 -126.8,609.6 -130.4,906.2 1308,906.2 1308,581 			"/>
		</g>
		<g opacity="0.2">
			<polygon fill="#28475D" points="299.9,515 -130.4,649.8 -130.4,906.2 1308,906.2 1308,630.9 			"/>
		</g>
		<g opacity="0.2">
			<polygon fill="#28475D" points="925.6,501.8 -130.4,663.2 -130.4,906.2 1308,906.2 1308,648.8 			"/>
		</g>
		<g opacity="0.2">
			<polygon fill="#28475D" points="863.8,558.3 -130.4,687.8 -130.4,906.2 1308,906.2 1308,669.6 			"/>
		</g>
		<g opacity="0.2">
			<polygon fill="#28475D" points="878.6,601 -137.8,712.9 -137.8,886.8 1308,906.2 1308,708.6 			"/>
		</g>
		<g opacity="0.2">
			<polygon fill="#28475D" points="1308.8,877.8 1308.8,777.5 894.5,663.2 -129.5,810 -129.5,877.8 			"/>
		</g>
		<g>
			<polygon fill="#28475D" points="-141.9,946.6 -141.9,886.5 267.8,818.2 1311.2,906 1311.2,946.6 			"/>
		</g>
	</g>
</g>
</svg>
