<?xml version="1.0" encoding="utf-8"?>
<!-- Generator: Adobe Illustrator 18.1.1, SVG Export Plug-In . SVG Version: 6.00 Build 0)  -->
<svg version="1.1" id="Слой_1" xmlns="http://www.w3.org/2000/svg" xmlns:xlink="http://www.w3.org/1999/xlink" x="0px" y="0px"
	 viewBox="0 0 1200 914.6" enable-background="new 0 0 1200 914.6" xml:space="preserve">
<g>
	<defs>
		<rect id="SVGID_1_" y="-32" width="1200" height="1041.1"/>
	</defs>
	<clipPath id="SVGID_2_">
		<use xlink:href="#SVGID_1_"  overflow="visible"/>
	</clipPath>
	<g clip-path="url(#SVGID_2_)">
		<g opacity="0.2">
			<polygon fill="#558FAF" points="-126.8,57.7 248.7,4.7 1308,84.2 1308,874.2 -126.8,874.2 			"/>
		</g>
		<g opacity="0.2">
			<polygon fill="#558FAF" points="1308,874.2 1308,105.5 1146.7,13.5 -126.8,130.7 -126.8,874.2 			"/>
		</g>
		<g opacity="0.2">
			<polygon fill="#558FAF" points="663.8,6.6 -126.8,89.6 -130.4,874.2 1308,874.2 1308,126.6 			"/>
		</g>
		<g opacity="0.2">
			<polygon fill="#558FAF" points="983.4,41.6 -130.4,185.8 -130.4,874.2 1308,874.2 1308,176.5 			"/>
		</g>
		<g opacity="0.2">
			<polygon fill="#558FAF" points="307.6,40 -126.8,169.1 -130.4,874.2 1308,874.2 1308,239 			"/>
		</g>
		<g opacity="0.2">
			<polygon fill="#496F85" points="965.2,103.6 -130.4,317.7 -130.4,874.2 1308,874.2 1308,293.9 			"/>
		</g>
		<g>
			<g opacity="0.2">
				<polygon fill="#496F85" points="529.3,142.4 -130.4,366.1 -130.4,874.2 1308,874.2 1308,351.2 				"/>
			</g>
		</g>
		<g opacity="0.2">
			<polygon fill="#496F85" points="959.8,200.5 -130.4,413.4 -130.4,874.2 1301.4,874.2 1301.4,406.1 			"/>
		</g>
		<g opacity="0.2">
			<polygon fill="#496F85" points="1308,874.2 1308,441.8 864.3,328.5 -129.5,460.4 -129.5,874.2 			"/>
		</g>
		<g opacity="0.2">
			<polygon fill="#364A5C" points="878.6,375.1 -130.4,506.4 -130.4,874.2 1308,874.2 1308,482.7 			"/>
		</g>
		<g opacity="0.2">
			<polygon fill="#364A5C" points="925.6,435.7 -126.8,577.6 -130.4,874.2 1308,874.2 1308,549 			"/>
		</g>
		<g opacity="0.2">
			<polygon fill="#364A5C" points="299.9,483 -130.4,617.8 -130.4,874.2 1308,874.2 1308,598.9 			"/>
		</g>
		<g opacity="0.2">
			<polygon fill="#364A5C" points="925.6,469.8 -130.4,631.2 -130.4,874.2 1308,874.2 1308,616.8 			"/>
		</g>
		<g opacity="0.2">
			<polygon fill="#364A5C" points="863.8,526.3 -130.4,655.8 -130.4,874.2 1308,874.2 1308,637.6 			"/>
		</g>
		<g opacity="0.2">
			<polygon fill="#364A5C" points="878.6,569 -137.8,680.9 -137.8,854.8 1308,874.2 1308,676.6 			"/>
		</g>
		<g opacity="0.2">
			<polygon fill="#364A5C" points="1308.8,845.8 1308.8,745.5 894.5,631.2 -129.5,778 -129.5,845.8 			"/>
		</g>
		<g>
			<polygon fill="#364A5C" points="-141.9,914.6 -141.9,854.5 267.8,786.2 1311.2,874 1311.2,914.6 			"/>
		</g>
	</g>
</g>
</svg>
