<?xml version="1.0" encoding="utf-8"?>
<!-- Generator: Adobe Illustrator 18.1.1, SVG Export Plug-In . SVG Version: 6.00 Build 0)  -->
<svg version="1.1" id="Слой_1" xmlns="http://www.w3.org/2000/svg" xmlns:xlink="http://www.w3.org/1999/xlink" x="0px" y="0px"
	 viewBox="0 0 87.2 81.7" enable-background="new 0 0 87.2 81.7" xml:space="preserve">
<g>
	<path fill="#CFD8DC" d="M55.8,14.6c-17.3,0-31.4,14.1-31.4,31.4c0,17.3,14.1,31.4,31.4,31.4c1.6,0,3.3-0.1,4.9-0.4l19.1,4.7
		c0.1,0,0.3,0,0.4,0c0.4,0,0.7-0.1,1-0.3c0.4-0.3,0.6-0.8,0.6-1.3V63.5c3.5-5.2,5.4-11.3,5.4-17.6C87.2,28.7,73.1,14.6,55.8,14.6z
		 M78.9,62.1c-0.2,0.3-0.3,0.7-0.3,1.1V78l-17.2-4.2c-0.3-0.1-0.6-0.1-0.8-0.1c-1.6,0.3-3.2,0.4-4.7,0.4
		c-15.5,0-28.1-12.6-28.1-28.1s12.6-28.1,28.1-28.1S84,30.5,84,46C84,51.8,82.2,57.4,78.9,62.1z"/>
	<path fill="#CFD8DC" d="M7.9,79.1c0.1,0.5,0.3,0.9,0.8,1.2c0.3,0.2,0.5,0.2,0.8,0.2c0.2,0,0.4,0,0.6-0.1l18.5-7.1
		c1.4,0.3,2.9,0.6,4.4,0.8c0.9,0.1,1.7-0.5,1.8-1.4c0.1-0.9-0.5-1.7-1.4-1.8c-1.5-0.2-3-0.4-4.5-0.8c-0.4-0.1-0.8,0-1.1,0.1
		l-16.9,6.5L8.2,55.3c0-0.3-0.1-0.6-0.2-0.8c-1-1.7-1.8-3.4-2.5-5.1C-1.2,31.9,7.6,12.2,25,5.5C37,0.9,50.3,3.4,59.9,12
		c0.7,0.6,1.7,0.5,2.3-0.1c0.6-0.7,0.5-1.7-0.1-2.3C51.6,0.2,37-2.5,23.9,2.5C4.7,9.8-4.9,31.3,2.5,50.5C3.2,52.3,4,54.1,5,55.8
		L7.9,79.1z"/>
	<circle fill="#CFD8DC" cx="40.4" cy="44.5" r="4.2"/>
	<circle fill="#CFD8DC" cx="55.5" cy="44.5" r="4.2"/>
	<circle fill="#CFD8DC" cx="70.7" cy="44.5" r="4.2"/>
</g>
</svg>
