<?xml version="1.0" encoding="utf-8"?>
<!-- Generator: Adobe Illustrator 18.1.1, SVG Export Plug-In . SVG Version: 6.00 Build 0)  -->
<svg version="1.1" id="Слой_1" xmlns="http://www.w3.org/2000/svg" xmlns:xlink="http://www.w3.org/1999/xlink" x="0px" y="0px"
	 viewBox="0 0 87.3 62.9" enable-background="new 0 0 87.3 62.9" xml:space="preserve">
<g>
	<path fill="#EEBF2F" d="M48.8,31c-1.5,0-2.8-0.9-3.3-2.2c-0.6-1.4-0.2-2.9,0.9-3.9c1.2-1.1,1.4-3,0.4-4.4c-1.2-1.6-2.6-3-4.2-4.2
		c-0.6-0.5-1.3-0.7-2-0.7c-0.9,0-1.8,0.4-2.4,1.1c-0.6,0.7-1.7,1.1-2.7,1.1c-0.4,0-0.9-0.1-1.2-0.2c-1.4-0.6-2.2-2-2.2-3.5
		c0.1-1.7-1.1-3.2-2.8-3.4c-2-0.2-3.9-0.2-5.9,0c-1.7,0.2-2.9,1.6-2.9,3.3c0.1,1.5-0.8,2.9-2.2,3.4c-0.4,0.1-0.8,0.2-1.2,0.2
		c-1.1,0-2.1-0.4-2.7-1.1c-0.6-0.7-1.5-1-2.4-1c-0.7,0-1.4,0.2-2,0.7c-1.6,1.2-3,2.6-4.2,4.2c-1.1,1.3-0.9,3.2,0.3,4.4
		c1.1,1,1.5,2.6,0.9,4c-0.5,1.3-1.9,2.1-3.6,2.2c-1.7,0-3.1,1.2-3.3,2.8c-0.2,2-0.2,4,0,6c0.2,1.8,1.9,2.8,3.4,2.8l0.1,0
		c1.4,0,2.6,0.9,3.2,2.2C7.5,46,7.1,47.6,6,48.6c-1.2,1.1-1.4,3-0.4,4.3c1.2,1.5,2.6,3,4.1,4.2c0.6,0.5,1.3,0.7,2,0.7
		c0.9,0,1.8-0.4,2.4-1.1c0.6-0.7,1.7-1.1,2.7-1.1c0.4,0,0.9,0.1,1.2,0.2c1.4,0.6,2.2,2,2.2,3.5c-0.1,1.7,1.1,3.2,2.8,3.4
		c1,0.1,2,0.2,3,0.2c1,0,1.9-0.1,2.9-0.2c1.7-0.2,2.9-1.6,2.9-3.3c-0.1-1.5,0.8-2.9,2.2-3.4c0.4-0.1,0.8-0.2,1.2-0.2
		c1,0,2.1,0.4,2.7,1.1c0.6,0.7,1.5,1,2.4,1c0.7,0,1.4-0.2,2-0.7c1.6-1.2,3-2.6,4.2-4.2c1.1-1.3,0.9-3.2-0.3-4.4
		c-1.1-1-1.5-2.6-0.9-4c0.5-1.3,1.8-2.2,3.2-2.2l0.2,0c0.1,0,0.1,0,0.2,0h0c1.6,0,3-1.2,3.2-2.8c0.2-2,0.2-4,0-6
		C52,32,50.3,31,48.8,31z M48.6,38.9c-2.9,0-5.5,1.8-6.6,4.4c-1.1,2.7-0.5,5.8,1.5,7.8c-0.9,1.1-1.9,2.1-3,3c-1.3-1.3-3.2-2-5.1-2
		c-0.9,0-1.8,0.2-2.6,0.5c-2.6,1.1-4.4,3.7-4.5,6.5c-1.4,0.1-2.8,0.1-4.2,0c0-2.9-1.8-5.5-4.4-6.6c-0.8-0.3-1.7-0.5-2.7-0.5
		c-1.9,0-3.8,0.7-5.1,2c-1.1-0.9-2-1.9-2.9-3c2-2.1,2.6-5.1,1.5-7.8c-1.1-2.7-3.7-4.5-6.5-4.5c-0.1-1.4-0.1-2.8,0-4.2
		c3-0.1,5.5-1.8,6.6-4.4c1.1-2.7,0.5-5.8-1.5-7.8c0.9-1.1,1.9-2.1,3-3c1.3,1.3,3.2,2,5.1,2c0.9,0,1.8-0.2,2.6-0.5
		c2.6-1.1,4.4-3.7,4.5-6.5c1.4-0.1,2.8-0.1,4.2,0c0,2.9,1.8,5.5,4.4,6.6c0.8,0.3,1.7,0.5,2.7,0.5c1.9,0,3.8-0.7,5.1-2
		c1.1,0.9,2,1.9,2.9,3c-2,2.1-2.6,5.1-1.5,7.8c1.1,2.7,3.6,4.4,6.5,4.5C48.7,36.1,48.7,37.5,48.6,38.9z"/>
	<path fill="#EEBF2F" d="M26.2,26.8c-5.5,0-10,4.5-10,10s4.5,10,10,10c5.5,0,10-4.5,10-10C36.2,31.3,31.7,26.8,26.2,26.8z M26.2,43
		c-3.5,0-6.3-2.8-6.3-6.3c0-3.5,2.8-6.3,6.3-6.3s6.3,2.8,6.3,6.3C32.5,40.2,29.7,43,26.2,43z"/>
	<path fill="#EEBF2F" d="M68,11.6c-1,0-2,0.2-2.9,0.6c-3.9,1.6-5.8,6.2-4.2,10.1c1.2,2.9,4,4.8,7.1,4.8c1,0,2-0.2,2.9-0.6
		c3.9-1.6,5.8-6.2,4.2-10.1C74,13.4,71.2,11.6,68,11.6z M69.8,23.4c-0.5,0.2-1.1,0.3-1.7,0.3c-1.8,0-3.5-1.1-4.2-2.8
		c-1-2.3,0.1-4.9,2.4-5.9c0.5-0.2,1.1-0.3,1.7-0.3c1.8,0,3.5,1.1,4.2,2.8C73.2,19.9,72.1,22.5,69.8,23.4z"/>
	<path fill="#EEBF2F" d="M85.5,21.6c-1-0.3-1.6-1.3-1.6-2.3c0-0.9,0.6-1.9,1.5-2.2l0.2-0.1c1.3-0.4,2-1.9,1.6-3.2
		c-0.4-1.4-1-2.9-1.7-4.2c-0.4-0.8-1.3-1.3-2.4-1.3c-0.4,0-0.8,0.1-1.1,0.2c-0.3,0.1-0.6,0.2-1,0.2c-0.7,0-1.3-0.3-1.7-0.7
		c-0.7-0.7-0.9-1.8-0.5-2.8c0.6-1.2,0.1-2.7-1.1-3.4c-1.3-0.7-2.7-1.3-4.1-1.7C73.3,0.1,73.1,0,72.8,0c-1.1,0-2.1,0.7-2.5,1.7
		C70,2.7,69,3.4,68.1,3.4c-1,0-2-0.7-2.3-1.6C65.4,0.7,64.4,0,63.3,0c-0.2,0-0.5,0-0.7,0.1c-1.4,0.4-2.8,1-4.1,1.7
		c-1.2,0.7-1.7,2.1-1.1,3.4c0.4,0.9,0.2,2-0.5,2.8c-0.4,0.4-1.1,0.7-1.8,0.7c-0.4,0-0.7-0.1-1-0.2c-0.4-0.2-0.7-0.2-1.1-0.2
		c-0.9,0-1.8,0.5-2.3,1.3c-0.7,1.3-1.3,2.7-1.8,4.2c-0.4,1.3,0.3,2.7,1.6,3.2c1,0.3,1.6,1.3,1.6,2.3c0,1-0.7,1.9-1.7,2.3
		c-1.3,0.5-2,1.8-1.6,3.2c0.4,1.4,1,2.9,1.7,4.2c0.4,0.8,1.3,1.3,2.4,1.3c0.4,0,0.8-0.1,1.1-0.2l0,0c0.3-0.1,0.6-0.2,0.9-0.2
		c0.6,0,1.3,0.3,1.7,0.7c0.7,0.7,0.9,1.8,0.5,2.8c-0.6,1.2-0.1,2.7,1.1,3.4c1.3,0.7,2.7,1.3,4.1,1.7c0.2,0.1,0.5,0.1,0.7,0.1
		c1.1,0,2.1-0.7,2.5-1.7c0.3-0.9,1.3-1.6,2.3-1.6c1,0,2,0.7,2.3,1.6c0.4,1.1,1.4,1.8,2.5,1.8c0.2,0,0.5,0,0.7-0.1
		c0.7-0.2,1.5-0.5,2.2-0.8c0.7-0.3,1.3-0.6,2-0.9c1.2-0.7,1.7-2.1,1.1-3.4c-0.4-0.9-0.2-2,0.5-2.8c0.4-0.4,1.1-0.7,1.8-0.7
		c0.4,0,0.7,0.1,1,0.2c0.4,0.2,0.7,0.2,1.1,0.2c0,0,0,0,0,0c0.9,0,1.8-0.5,2.3-1.3c0.7-1.3,1.3-2.7,1.8-4.2
		C87.5,23.5,86.8,22.1,85.5,21.6z M82.8,27c-0.6-0.2-1.2-0.3-1.8-0.3c-1.5,0-3,0.6-4,1.6c-1.5,1.5-2.1,3.8-1.4,5.9
		c-0.4,0.2-0.8,0.4-1.2,0.6c-0.4,0.2-0.9,0.3-1.3,0.5c-0.9-2-2.9-3.3-5.1-3.3c-2.1,0-4.2,1.3-5.1,3.2c-0.9-0.3-1.7-0.6-2.5-1.1
		c0.7-2,0.2-4.3-1.3-5.9c-1.1-1.1-2.5-1.7-4-1.7c-0.6,0-1.3,0.1-1.9,0.3c-0.4-0.8-0.8-1.7-1.1-2.6c2-1,3.3-3,3.3-5.1
		c0-2.2-1.3-4.2-3.2-5.1c0.3-0.9,0.6-1.7,1.1-2.5c0.6,0.2,1.2,0.3,1.8,0.3c1.5,0,3-0.6,4-1.6c1.5-1.5,2.1-3.8,1.4-5.9
		c0.8-0.4,1.6-0.8,2.5-1c0.9,2,2.9,3.3,5.1,3.3c2.1,0,4.2-1.3,5.1-3.2C74,3.7,74.9,4,75.7,4.4c-0.7,2-0.2,4.3,1.3,5.9
		c1.1,1.1,2.5,1.7,4,1.7c0.6,0,1.3-0.1,1.9-0.3c0.4,0.8,0.8,1.7,1.1,2.5c-2,0.9-3.3,2.9-3.3,5.1c0,2.2,1.3,4.2,3.2,5.1
		C83.6,25.3,83.2,26.2,82.8,27z"/>
</g>
</svg>
