<?xml version="1.0" encoding="utf-8"?> <!-- Generator: Adobe Illustrator 18.1.1, SVG Export Plug-In . SVG Version: 6.00 Build 0)  --> <svg version="1.1" id="Слой_1" xmlns="http://www.w3.org/2000/svg" xmlns:xlink="http://www.w3.org/1999/xlink" x="0px" y="0px" viewBox="0 0 87.3 62.9" enable-background="new 0 0 87.3 62.9" xml:space="preserve"> <g id="_x37_7_Essential_Icons_71_"> <path id="Users" fill="#CFD6DA" d="M72.3,39.8c2.9-2.4,4.9-6.2,4.9-10.4c0-7-5.7-13.2-12.2-13.2c-6.5,0-12.2,6.2-12.2,13.2 c0,4.2,1.9,7.9,4.9,10.4c-1.3,0.5-2.5,1-3.8,1.7c-3.9-4.6-8.9-8.1-14.8-9.8c4.5-3.1,7.6-8.5,7.6-14.4C46.7,8,39.1,0,30.4,0 S14.2,8,14.2,17.3c0,5.9,3.1,11.3,7.6,14.4C9.2,35.4,0,47.1,0,60.9c0,1.1,0.9,2,2,2h83.2c1.1,0,2-0.9,2-2 C87.3,51.1,81,42.8,72.3,39.8z M56.8,29.4c0-4.3,3.6-9.1,8.1-9.1s8.1,4.9,8.1,9.1s-3.6,9.1-8.1,9.1S56.8,33.7,56.8,29.4z M18.3,17.3c0-6.2,5.2-13.2,12.2-13.2s12.2,7,12.2,13.2s-5.2,13.2-12.2,13.2S18.3,23.4,18.3,17.3z M4.2,58.9 c1-13.6,12.5-24.4,26.3-24.4c13.9,0,25.3,10.8,26.3,24.4H4.2z M60.8,58.9c-0.3-5.1-1.9-9.9-4.6-14c2.6-1.4,5.6-2.2,8.7-2.2 c9.4,0,17.1,7.1,18.2,16.2H60.8z"/> </g> </svg>