<?xml version="1.0" encoding="utf-8"?> <!-- Generator: Adobe Illustrator 18.1.1, SVG Export Plug-In . SVG Version: 6.00 Build 0)  --> <svg version="1.1" id="Слой_1" xmlns="http://www.w3.org/2000/svg" xmlns:xlink="http://www.w3.org/1999/xlink" x="0px" y="0px" viewBox="0 0 69.2 65.9" enable-background="new 0 0 69.2 65.9" xml:space="preserve"> <g> <path fill="#CFD6DA" d="M2.2,10.9h11.6c1,3.7,4.4,6.5,8.4,6.5s7.5-2.8,8.4-6.5H67c1.2,0,2.2-1,2.2-2.2s-1-2.2-2.2-2.2H30.7 c-1-3.7-4.4-6.5-8.4-6.5s-7.5,2.8-8.4,6.5H2.2C1,6.5,0,7.5,0,8.7S1,10.9,2.2,10.9z M22.3,4.4c2.4,0,4.3,1.9,4.3,4.3 S24.6,13,22.3,13S18,11.1,18,8.7S19.9,4.4,22.3,4.4z"/> <path fill="#CFD6DA" d="M67,30.7H52.2c-1-3.7-4.4-6.5-8.4-6.5s-7.5,2.8-8.4,6.5H2.2c-1.2,0-2.2,1-2.2,2.2c0,1.2,1,2.2,2.2,2.2h33.1 c1,3.7,4.4,6.5,8.4,6.5s7.5-2.8,8.4-6.5H67c1.2,0,2.2-1,2.2-2.2C69.2,31.7,68.2,30.7,67,30.7z M43.7,37.2c-2.4,0-4.3-1.9-4.3-4.3 s1.9-4.3,4.3-4.3c2.4,0,4.3,1.9,4.3,4.3S46.1,37.2,43.7,37.2z"/> <path fill="#CFD6DA" d="M67,54.9H30.7c-1-3.7-4.4-6.5-8.4-6.5s-7.5,2.8-8.4,6.5H2.2c-1.2,0-2.2,1-2.2,2.2c0,1.2,1,2.2,2.2,2.2h11.6 c1,3.7,4.4,6.5,8.4,6.5s7.5-2.8,8.4-6.5H67c1.2,0,2.2-1,2.2-2.2C69.2,55.9,68.2,54.9,67,54.9z M22.3,61.5c-2.4,0-4.3-1.9-4.3-4.3 s1.9-4.3,4.3-4.3s4.3,1.9,4.3,4.3S24.6,61.5,22.3,61.5z"/> </g> </svg>