<?xml version="1.0" encoding="utf-8"?> <!-- Generator: Adobe Illustrator 18.1.1, SVG Export Plug-In . SVG Version: 6.00 Build 0)  --> <svg version="1.1" id="Слой_1" xmlns="http://www.w3.org/2000/svg" xmlns:xlink="http://www.w3.org/1999/xlink" x="0px" y="0px" viewBox="0 0 91.9 97.4" enable-background="new 0 0 91.9 97.4" xml:space="preserve"> <g> <path fill="#CFD6DA" d="M47.2,19.3c-14.3,0-25.9,11.6-25.9,25.9c0,5.9,1.9,11.4,5.6,16c0.7,0.9,1.4,1.8,2.2,2.6 c2.2,2.5,4.2,4.9,4.9,7.6c0,0.1,0.2,0.6,0.1,2.5l0,0.3c0,1.5-0.1,3.7,1.5,5.3c1.1,1.1,2.6,1.6,4.6,1.6h14c2.2,0,3.8-0.5,4.8-1.6 c1.4-1.5,1.3-3.4,1.3-4.7c0-0.2,0-0.5,0-0.7c0-1.9,0.1-2.4,0.1-2.5c0.7-2.7,3.1-5.5,5.2-8c0.7-0.8,1.4-1.6,2-2.4 c3.6-4.6,5.6-10.1,5.6-16C73.1,31,61.5,19.3,47.2,19.3z M63.4,58c-0.6,0.7-1.2,1.5-1.9,2.2c-2.5,2.9-5.3,6.2-6.3,10 c-0.1,0.5-0.3,1.5-0.3,3.9c0,0.3,0,0.6,0,0.9c0,0.2,0,0.5,0,0.8c-0.2,0-0.5,0.1-0.9,0.1h-14c-0.4,0-0.7,0-0.8-0.1 c-0.1-0.3-0.1-1-0.1-1.5l0-0.3c0-2.4-0.2-3.4-0.3-4c-1-3.8-3.7-6.9-6-9.6c-0.7-0.8-1.4-1.6-2-2.4c-2.9-3.7-4.4-8.1-4.4-12.8 c0-11.4,9.3-20.7,20.7-20.7c11.4,0,20.7,9.3,20.7,20.7C67.9,50,66.3,54.4,63.4,58z"/> <path fill="#CFD6DA" d="M53.6,83.5H40.7c-2.8,0-5.1,2.3-5.1,5.1v3.9c0,2.8,2.3,5.1,5.1,5.1h12.9c2.8,0,5.1-2.3,5.1-5.1v-3.9 C58.7,85.7,56.4,83.5,53.6,83.5z M53.4,92.2H40.9v-3.5h12.6V92.2z"/> <path fill="#CFD6DA" d="M47.1,15.9c1.4,0,2.6-1.2,2.6-2.6V2.6c0-1.4-1.2-2.6-2.6-2.6s-2.6,1.2-2.6,2.6v10.7 C44.5,14.8,45.7,15.9,47.1,15.9z"/> <path fill="#CFD6DA" d="M81.5,12.1c-1-1-2.6-1.1-3.7-0.1l-7.9,7.6c-1,1-1.1,2.7-0.1,3.7c0.5,0.5,1.2,0.8,1.9,0.8 c0.6,0,1.3-0.2,1.8-0.7l7.9-7.6C82.5,14.8,82.5,13.1,81.5,12.1z"/> <path fill="#CFD6DA" d="M89.3,38.2C89.3,38.2,89.3,38.2,89.3,38.2l-10.2,0c-1.4,0-2.6,1.2-2.6,2.6c0,1.4,1.2,2.6,2.6,2.6 c0,0,0,0,0,0l10.2,0c1.4,0,2.6-1.2,2.6-2.6C91.9,39.3,90.8,38.2,89.3,38.2z"/> <path fill="#CFD6DA" d="M23.2,22.5c1-1,1-2.7-0.1-3.7l-7.9-7.6c-1-1-2.7-1-3.7,0.1c-1,1-1,2.7,0.1,3.7l7.9,7.6 c0.5,0.5,1.2,0.7,1.8,0.7C22,23.3,22.6,23.1,23.2,22.5z"/> <path fill="#CFD6DA" d="M12.8,38.2l-10.2,0c0,0,0,0,0,0c-1.4,0-2.6,1.2-2.6,2.6c0,1.4,1.2,2.6,2.6,2.6l10.2,0c0,0,0,0,0,0 c1.4,0,2.6-1.2,2.6-2.6C15.4,39.4,14.3,38.2,12.8,38.2z"/> </g> </svg>