<?xml version="1.0" encoding="utf-8"?> <!-- Generator: Adobe Illustrator 18.1.1, SVG Export Plug-In . SVG Version: 6.00 Build 0)  --> <svg version="1.1" id="Слой_1" xmlns="http://www.w3.org/2000/svg" xmlns:xlink="http://www.w3.org/1999/xlink" x="0px" y="0px" viewBox="0 0 190.3 100.3" enable-background="new 0 0 190.3 100.3" xml:space="preserve"> <path fill="#FFFFFF" d="M185.2,0c-2.9,0-5.2,2.3-5.2,5.2c0,0.5,0.1,1,0.2,1.5l-55.6,55.6c-0.5-0.1-1-0.2-1.5-0.2 c-0.7,0-1.3,0.1-1.9,0.4l-15.7-15.7c0.4-0.8,0.7-1.6,0.7-2.5c0-2.9-2.3-5.2-5.2-5.2c-2.9,0-5.2,2.3-5.2,5.2c0,0.7,0.1,1.3,0.4,1.9 L67.1,75.4c-0.6-0.2-1.2-0.4-1.9-0.4c-0.7,0-1.3,0.1-1.9,0.4L47.6,59.7c0.4-0.8,0.7-1.6,0.7-2.6c0-2.9-2.3-5.2-5.2-5.2 c-2.9,0-5.2,2.3-5.2,5.2c0,0.7,0.2,1.4,0.4,2.1L7.3,90.4C6.6,90.2,5.9,90,5.2,90C2.3,90,0,92.3,0,95.2c0,2.9,2.3,5.2,5.2,5.2 c2.9,0,5.2-2.3,5.2-5.2c0-0.8-0.2-1.5-0.5-2.2L41,61.8c0.7,0.3,1.4,0.5,2.2,0.5c0.6,0,1.1-0.1,1.6-0.3l15.8,15.8 c-0.4,0.7-0.6,1.5-0.6,2.3c0,2.9,2.3,5.2,5.2,5.2c2.9,0,5.2-2.3,5.2-5.2c0-0.8-0.2-1.6-0.6-2.3l29.1-29.1c0.7,0.4,1.5,0.6,2.3,0.6 c0.6,0,1.1-0.1,1.7-0.3l15.8,15.8c-0.4,0.7-0.6,1.5-0.6,2.4c0,2.9,2.3,5.2,5.2,5.2c2.9,0,5.2-2.3,5.2-5.2c0-1-0.3-1.9-0.8-2.7 l54.9-54.9c0.8,0.5,1.7,0.8,2.7,0.8c2.9,0,5.2-2.3,5.2-5.2C190.3,2.3,188,0,185.2,0z"/> </svg>