<?xml version="1.0" encoding="utf-8"?> <svg version="1.1" id="Layer_1" xmlns="http://www.w3.org/2000/svg" xmlns:xlink="http://www.w3.org/1999/xlink" x="0px" y="0px" viewBox="0 0 139 126" enable-background="new 0 0 139 126" xml:space="preserve"> <g> <g> <g> <path fill="#00455E" d="M69.6,16.4c12,0,23,4.9,30.9,12.8l0,0l0,0v0c7.9,7.9,12.8,18.8,12.8,30.9c0,12.1-4.9,23-12.8,30.9l0,0 c-7.9,7.9-18.8,12.8-30.9,12.8c-12.1,0-23-4.9-30.9-12.8l0,0c-7.9-7.9-12.8-18.8-12.8-30.9c0-12.1,4.9-23,12.8-30.9 C46.6,21.3,57.5,16.4,69.6,16.4L69.6,16.4z M97.6,32.1c-7.2-7.2-17.1-11.6-28-11.6c-10.9,0-20.9,4.4-28,11.6 c-7.2,7.2-11.6,17.1-11.6,28s4.4,20.9,11.6,28c7.2,7.2,17.1,11.6,28,11.6c10.9,0,20.9-4.4,28-11.6c7.2-7.2,11.6-17.1,11.6-28 C109.2,49.2,104.8,39.2,97.6,32.1L97.6,32.1z"/> <path fill="#00455E" d="M110,48c1.1,0,2,0.9,2,2s-0.9,2-2,2H74.8c-6.3,0-12-2.6-16.1-6.7s-6.7-9.9-6.7-16.1v-7.7c0-1.1,0.9-2,2-2 c1.1,0,2,0.9,2,2v7.7c0,5.2,2.1,9.9,5.5,13.3c3.4,3.4,8.1,5.5,13.3,5.5L110,48L110,48L110,48z"/> <path fill="#00455E" d="M29.1,52c-1.1,0-2-0.9-2-2c0-1.1,0.9-2,2-2c3.9,0,7.3-0.2,10.3-1.1c2.9-0.9,5.6-2.6,8.1-5.8 c0.7-0.9,2-1,2.8-0.3s1,2,0.3,2.8c-3.1,3.8-6.4,5.9-10,7C37.2,51.9,33.4,52,29.1,52z"/> <path fill="#00455E" d="M81,87c1-0.4,2.2,0.1,2.6,1.1c0.4,1-0.1,2.2-1.1,2.6c-2,0.8-4.1,1.5-6.3,2c-2.2,0.4-4.4,0.7-6.6,0.7 c-2.2,0-4.5-0.2-6.6-0.7c-2.2-0.4-4.3-1.1-6.3-2c-1-0.4-1.5-1.6-1.1-2.6c0.4-1,1.6-1.5,2.6-1.1c1.8,0.7,3.6,1.3,5.6,1.7 c1.9,0.4,3.8,0.6,5.8,0.6c2,0,4-0.2,5.8-0.6C77.3,88.4,79.2,87.8,81,87z"/> <path fill="#00455E" d="M115.7,79.9c0.4-1,1.6-1.5,2.6-1.1c1,0.4,1.5,1.6,1.1,2.6c-0.3,0.7-0.7,1.5-1.1,2.4v0v0 c-0.4,0.7-0.8,1.5-1.2,2.3c-0.4,0.7-0.8,1.5-1.3,2.3c-0.5,0.8-0.9,1.5-1.4,2.2l0,0c-0.5,0.7-1,1.4-1.5,2.1l-0.1,0.1 c-0.5,0.7-1,1.3-1.5,1.9c-0.6,0.7-1.1,1.3-1.7,2c-0.6,0.7-1.2,1.3-1.8,1.9l-0.1,0.1c-0.5,0.5-1.1,1.1-1.8,1.7l0,0 c-0.6,0.5-1.3,1.1-2,1.7v0c-0.7,0.6-1.4,1.1-2,1.6c-0.7,0.5-1.4,1-2.1,1.5c-0.7,0.5-1.4,0.9-2.2,1.4c-0.7,0.4-1.5,0.9-2.3,1.3 l-0.1,0.1c-0.8,0.4-1.5,0.8-2.2,1.1l-0.1,0.1c-0.8,0.4-1.6,0.7-2.3,1l-0.2,0.1l-1,0.4l-0.1,0v0l-1.2,0.5l0,0l-1.2,0.4l0,0v0 l-1.2,0.4l-0.2,0l-1.1,0.3l0,0v0l-1.2,0.3c-1.1,0.3-2.2-0.4-2.5-1.4c-0.3-1.1,0.4-2.2,1.4-2.5l1.2-0.3v0l1.1-0.3l0.1,0l1.2-0.4v0 l1.1-0.4h0L88,107l1-0.4l0.1-0.1c0.8-0.3,1.5-0.6,2.1-0.9l0.1,0c0.7-0.4,1.4-0.7,2.1-1l0.1-0.1c0.7-0.4,1.4-0.8,2.1-1.2 c0.7-0.4,1.4-0.8,2.1-1.3c0.7-0.4,1.3-0.9,2-1.4c0.7-0.5,1.3-1,1.9-1.5h0h0c0.6-0.5,1.2-1,1.8-1.6l0,0l0,0c0.5-0.5,1.1-1,1.6-1.5 l0.1-0.1c0.6-0.6,1.2-1.2,1.7-1.7c0.5-0.6,1.1-1.2,1.6-1.8c0.5-0.6,1-1.2,1.4-1.8l0.1-0.1c0.5-0.6,0.9-1.3,1.4-2l0,0v0 c0.5-0.7,0.9-1.4,1.3-2c0.4-0.7,0.8-1.4,1.2-2.1c0.4-0.7,0.7-1.4,1.1-2.2v0C115,81.5,115.4,80.7,115.7,79.9z"/> <path fill="#00455E" d="M18.1,49.9c-2.2,0.4-4.2,1.5-5.8,3c-2,2-3.2,4.7-3.2,7.8c0,3,1.2,5.8,3.2,7.8c1.5,1.5,3.5,2.6,5.8,3V49.9 L18.1,49.9z M9.5,50.1c2.7-2.7,6.4-4.4,10.6-4.4h0.1c1.1,0,2,0.9,2,2v26v0.1c0,1.1-0.9,2-2,2c-4.2,0-7.9-1.7-10.6-4.4 c-2.7-2.7-4.4-6.5-4.4-10.6C5.1,56.6,6.8,52.8,9.5,50.1z"/> <path fill="#00455E" d="M119,45.7L119,45.7c4.2,0,7.9,1.7,10.6,4.4l0,0c2.7,2.7,4.4,6.5,4.4,10.6c0,4.2-1.7,7.9-4.4,10.6 c-2.7,2.7-6.5,4.4-10.6,4.4c-1.1,0-2-0.9-2-2v-0.1v-26C117,46.6,117.9,45.7,119,45.7L119,45.7z M126.8,53L126.8,53 c-1.5-1.5-3.5-2.6-5.8-3v21.6c2.2-0.4,4.2-1.5,5.8-3c2-2,3.2-4.7,3.2-7.8C130,57.7,128.8,55,126.8,53z"/> <path fill="#00455E" d="M23.4,40.9c-0.4,1-1.6,1.5-2.6,1.1s-1.5-1.6-1.1-2.6c2-4.8,4.8-9.3,8.1-13.3c3.3-4,7.2-7.6,11.5-10.5 c4.5-3,9.3-5.3,14.4-6.9c5.1-1.6,10.4-2.4,15.8-2.4c1.1,0,2,0.9,2,2s-0.9,2-2,2c-5,0-10,0.7-14.7,2.2c-4.7,1.4-9.2,3.6-13.3,6.4 c-4,2.7-7.6,6-10.7,9.7C27.8,32.3,25.3,36.5,23.4,40.9z"/> <path fill="#00455E" d="M69.6,106.3c2,0,3.8,0.8,5.1,2.1l0,0c1.3,1.3,2.1,3.1,2.1,5.1c0,2-0.8,3.8-2.1,5.1 c-1.3,1.3-3.1,2.1-5.1,2.1c-2,0-3.8-0.8-5.1-2.1l0,0c-1.3-1.3-2.1-3.1-2.1-5.1c0-2,0.8-3.8,2.1-5.1 C65.8,107.1,67.6,106.3,69.6,106.3L69.6,106.3z M71.8,111.3L71.8,111.3c-0.6-0.6-1.4-0.9-2.3-0.9c-0.9,0-1.7,0.4-2.3,0.9 c-0.6,0.6-0.9,1.4-0.9,2.3c0,0.9,0.4,1.7,0.9,2.3l0,0c0.6,0.6,1.4,0.9,2.3,0.9c0.9,0,1.7-0.4,2.3-0.9c0.6-0.6,0.9-1.4,0.9-2.3 C72.8,112.6,72.4,111.8,71.8,111.3z"/> <path fill="#00455E" d="M119.4,39.4c0.4,1-0.1,2.2-1.1,2.6c-1,0.4-2.2-0.1-2.6-1.1c-1.9-4.5-4.4-8.6-7.5-12.3 c-3-3.7-6.6-7-10.7-9.7c-4.2-2.8-8.7-4.9-13.3-6.4c-4.7-1.4-9.6-2.2-14.7-2.2c-1.1,0-2-0.9-2-2s0.9-2,2-2 c5.4,0,10.7,0.8,15.8,2.4c5.1,1.6,10,3.9,14.4,6.9c4.3,2.9,8.2,6.5,11.5,10.5C114.6,30.1,117.4,34.6,119.4,39.4z"/> </g> </g> </g> </svg>