<?xml version="1.0" encoding="utf-8"?> <svg version="1.1" xmlns="http://www.w3.org/2000/svg" xmlns:xlink="http://www.w3.org/1999/xlink" x="0px" y="0px" viewBox="0 0 86.9 86.5" enable-background="new 0 0 86.9 86.5" xml:space="preserve" > <path fill="#CFD8DC" d="M6.6,86.5c-1.7,0-3.4-0.6-4.6-1.9c-2.6-2.6-2.6-6.7,0-9.3l19.8-19.8c-3.8-5.7-6.1-12.5-6.1-19.9 C15.6,16,31.6,0,51.3,0c19.6,0,35.6,16,35.6,35.6s-16,35.6-35.6,35.6c-7.6,0-14.6-2.4-20.4-6.4L11.2,84.6 C9.9,85.8,8.2,86.5,6.6,86.5z M22.8,57L3.2,76.6c-1.9,1.9-1.9,4.9,0,6.7c1.9,1.9,4.9,1.9,6.7,0l19.5-19.5 C26.9,61.8,24.7,59.5,22.8,57z M51.3,1.8C32.6,1.8,17.4,17,17.4,35.6s15.2,33.8,33.8,33.8s33.8-15.2,33.8-33.8S69.9,1.8,51.3,1.8z M51.3,67.6c-17.6,0-31.9-14.3-31.9-31.9S33.6,3.7,51.3,3.7S83.2,18,83.2,35.6S68.9,67.6,51.3,67.6z M51.3,5.5 C34.6,5.5,21.1,19,21.1,35.6s13.5,30.1,30.1,30.1s30.1-13.5,30.1-30.1S67.9,5.5,51.3,5.5z"/> </svg>