<?xml version="1.0" encoding="utf-8"?>
<!-- Generator: Adobe Illustrator 18.1.1, SVG Export Plug-In . SVG Version: 6.00 Build 0)  -->
<svg version="1.1" id="Слой_1" xmlns="http://www.w3.org/2000/svg" xmlns:xlink="http://www.w3.org/1999/xlink" x="0px" y="0px"
	 viewBox="0 0 52.7 81" enable-background="new 0 0 52.7 81" xml:space="preserve">
<g>
	<path fill="#CFD6DA" d="M50.4,38.9c-1.3,0-2.3,1-2.3,2.3c0,5.3-2.5,10.5-6.8,14.3c-4,3.6-9.3,5.6-14.5,5.6h-1
		c-5.2,0-10.5-2-14.5-5.6c-4.3-3.8-6.8-9-6.8-14.3c0-1.3-1-2.3-2.3-2.3S0,39.9,0,41.2C0,47.8,3,54.3,8.3,59c4.4,3.9,10,6.3,15.8,6.7
		v10.7H13.4c-1.3,0-2.3,1-2.3,2.3s1,2.3,2.3,2.3h26c1.3,0,2.3-1,2.3-2.3s-1-2.3-2.3-2.3H28.7V65.6c5.7-0.4,11.4-2.8,15.8-6.7
		c5.3-4.7,8.3-11.2,8.3-17.8C52.7,39.9,51.7,38.9,50.4,38.9z"/>
	<path fill="#CFD6DA" d="M25.9,56.7h1c9.2,0,17.3-7.5,17.3-16V16c0-8.5-8.1-16-17.3-16h-1C16.7,0,8.6,7.5,8.6,16v24.7
		C8.6,49.2,16.7,56.7,25.9,56.7z M13.2,16c0-6,6-11.4,12.7-11.4h1c6.6,0,12.7,5.4,12.7,11.4v24.7c0,6-6,11.4-12.7,11.4h-1
		c-6.6,0-12.7-5.4-12.7-11.4L13.2,16L13.2,16z"/>
</g>
</svg>
