<?xml version="1.0" encoding="utf-8"?> <!-- Generator: Adobe Illustrator 18.1.1, SVG Export Plug-In . SVG Version: 6.00 Build 0)  --> <svg version="1.1" id="Слой_1" xmlns="http://www.w3.org/2000/svg" xmlns:xlink="http://www.w3.org/1999/xlink" x="0px" y="0px" viewBox="0 0 87.5 86.9" enable-background="new 0 0 87.5 86.9" xml:space="preserve"> <g> <g> <path fill="#CFD8DC" d="M85.6,14.8l-3.9-3.9c-2.6-2.6-6.4-2.6-9,0L61.1,22.5L41.8,0H6.4C2.9,0,0,2.9,0,6.4v74 c0,3.5,2.9,6.4,6.4,6.4h48.3c3.5,0,6.4-2.9,6.4-6.4V48.3l24.5-24.5C88.2,21.2,88.2,17.4,85.6,14.8z M41.8,4.8L57,22.5H45 c-1.6,0-3.2-1.6-3.2-3.2V4.8z M57.9,80.4c0,1.6-1.3,3.2-3.2,3.2H6.4c-1.6,0-3.2-1.3-3.2-3.2v-74c0-1.6,1.3-3.2,3.2-3.2h32.2v16.1 c0,3.5,2.9,6.4,6.4,6.4h12.9L25.7,57.9L22.5,74l16.1-3.2l19.3-19.3V80.4z M28.6,59.8l8,8l-10,1.9L28.6,59.8z M39.3,65.6l-8.4-8.4 l36-36l8.4,8.4L39.3,65.6z M83.3,21.6L77.9,27l-8.4-8.4l5.5-5.5c1.3-1.3,3.2-1.3,4.5,0l3.9,3.9C84.6,18.3,84.6,20.3,83.3,21.6z"/> </g> </g> </svg>