<?xml version="1.0" encoding="utf-8"?> <!-- Generator: Adobe Illustrator 18.1.1, SVG Export Plug-In . SVG Version: 6.00 Build 0)  --> <svg version="1.1" id="Слой_1" xmlns="http://www.w3.org/2000/svg" xmlns:xlink="http://www.w3.org/1999/xlink" x="0px" y="0px" viewBox="0 0 76.2 86.8" enable-background="new 0 0 76.2 86.8" xml:space="preserve"> <path fill="#CFD8DC" d="M71.4,63.3l-0.5-0.6c-3.9-5-7.2-7.5-10-7.9c-2.4-0.3-4.8,1.4-7.3,3.1L51,59.5c-0.3,0.2-0.6,0.3-0.9,0.4 c-1.6,0.4-5.5,0.7-7.8-1.3c-2.6-2.4-6.6-6.7-9.8-10.5c-3-3.9-6.3-8.9-8-12c-1.5-2.6-0.2-6.3,0.6-7.6c0.2-0.3,0.4-0.5,0.6-0.8 l2.4-2.2c0,0,0-0.1,0.1-0.1c0,0,0.1,0,0.1,0c2.1-1.8,4.3-3.6,4.6-6c0.4-2.8-1.4-6.6-5.3-11.5L27,7.1C24.6,4,20.9-0.7,15.6,0.1 c-2.1,0.3-3.9,1-5.9,2.2c0,0,0,0,0,0c0,0,0,0,0,0L7,4.4c0,0,0,0-0.1,0.1c0,0,0,0-0.1,0C6.5,4.7,6.2,5,5.9,5.3 c-2.7,2.4-8.6,9.4-4.6,22.4C3.9,36,9.3,45.8,16.8,55.9L16.7,56l4.1,5.2l0,0c8.2,9.6,16.5,17.1,24.1,21.6c5.1,3,9.5,4,13.2,4 c4.8,0,8.2-1.7,10-2.8l1.1-0.7c0.1-0.1,0.2-0.2,0.3-0.3l2.4-1.8c0,0,0-0.1,0.1-0.1c0,0,0,0,0,0c1.7-1.5,2.8-3.1,3.7-5 C77.7,71.1,73.9,66.4,71.4,63.3z M72.8,74.8c-0.6,1.5-1.5,2.7-2.9,4l-3.5,2.6c-3.2,2.1-10,4.6-19.9-1.2C38.9,75.6,30.5,68,22.3,58 l-2.2-2.8C12.3,44.9,6.8,35.1,4.3,26.7C0.9,15.9,5.1,10.1,8,7.5C8.3,7.3,8.5,7,8.8,6.8l0,0l2.6-1.9c1.6-1,3-1.5,4.7-1.8 c3.5-0.5,6.4,3.2,8.5,5.9l0.5,0.6c4.4,5.5,4.8,8.2,4.7,9.3c-0.2,1.2-2,2.7-3.6,4.1L26,23.2c0,0,0,0,0,0c0,0,0,0,0,0l-2.4,2.3 c0,0,0,0,0,0.1c0,0,0,0-0.1,0c-0.4,0.4-0.7,0.8-1,1.3c-1.4,2.3-2.7,7-0.6,10.7c1.8,3.2,5.2,8.3,8.3,12.4c3.3,4,7.4,8.4,10.1,10.9 c2,1.8,4.8,2.5,7.3,2.5c1.3,0,2.5-0.2,3.4-0.4c0.5-0.1,1-0.3,1.5-0.6c0,0,0,0,0.1-0.1c0,0,0,0,0.1,0l2.8-1.8 c0.1-0.1,0.2-0.1,0.2-0.2l0,0c1.7-1.2,3.7-2.6,5-2.4c1.1,0.1,3.6,1.2,8,6.8l0.5,0.6C71.2,67.9,74.1,71.6,72.8,74.8z"/> </svg>