<?xml version="1.0" encoding="utf-8"?>
<!-- Generator: Adobe Illustrator 18.1.1, SVG Export Plug-In . SVG Version: 6.00 Build 0)  -->
<svg version="1.1" id="Слой_1" xmlns="http://www.w3.org/2000/svg" xmlns:xlink="http://www.w3.org/1999/xlink" x="0px" y="0px"
	 viewBox="0 0 120 125.9" enable-background="new 0 0 120 125.9" xml:space="preserve">
<g>
	<g>
		<path fill="none" stroke="#FFFFFF" stroke-width="5" stroke-miterlimit="10" d="M103.5,38.1c-4.6-4.2-9.9-7.5-15.6-9.9
			c-0.7,1.1-1.6,2.2-2.5,3.1c-1.3,1.3-2.7,2.4-4.3,3.2c1.7,0.5,3.2,1.2,4.8,1.9c1.5,0.7,2.1,2.6,1.3,4.1l0,0
			c-0.8,1.3-2.4,1.8-3.8,1.2c-10.4-4.9-22-4-27-3.2c-1.5,0.2-2.9-0.7-3.3-2.2v0c-0.4-1.7,0.7-3.3,2.4-3.6c0.9-0.1,2-0.3,3.3-0.4
			c-0.4-0.3-0.7-0.7-1.1-1c-1.8-1.8-3.2-3.9-4.2-6.2c-0.1-0.2-0.2-0.5-0.3-0.8c-1.5,0.3-3.1,0.6-4.6,1c-8.7-5.1-19.2-5.1-25.4-4.5
			c-2.7,0.3-4.3,3.1-3.1,5.6l5.3,10.8c-5.9,5.1-10.3,11.3-12.8,18.3l-6.4,0c-2.2,0-3.9,1.7-3.9,3.9v14.4c0,1.5,0.8,2.8,2.1,3.5
			l8.3,4.3c3.5,9.6,10.7,17.9,20.2,23.5v12.8c0,2.5,2,4.6,4.6,4.6h11.7c1.8,0,3.4-1.1,4.2-2.7l2.9-6.7c2.5,0.3,5.1,0.5,7.7,0.5
			c4.1,0,8.2-0.4,12-1.1v5.6c0,2.5,2,4.6,4.6,4.6h11.6c1.7,0,3.2-0.9,4-2.4c6.2-11.6,12.9-23.3,17.9-35.5c2.5-6.2,3.4-12.7,2.9-19.1
			C116.1,55.2,111.4,45.3,103.5,38.1z M33.7,62.3c-3.2,0-5.9-2.6-5.9-5.9c0-3.2,2.6-5.9,5.9-5.9s5.9,2.6,5.9,5.9
			C39.5,59.7,36.9,62.3,33.7,62.3z"/>
		<path fill="none" stroke="#FFFFFF" stroke-width="5" stroke-miterlimit="10" d="M65.8,32.1c1.8,0.7,3.7,1.1,5.8,1.1
			c1,0,2-0.1,2.9-0.3c4-0.7,7.4-3,9.7-6.1c1.9-2.6,3-5.8,3-9.3c0-8.7-7-15.7-15.7-15.7c-8.7,0-15.7,7-15.7,15.7
			c0,2.2,0.5,4.4,1.3,6.3C58.8,27.6,62,30.6,65.8,32.1z"/>
	</g>
</g>
</svg>
