<?xml version="1.0" encoding="utf-8"?> <!-- Generator: Adobe Illustrator 18.1.1, SVG Export Plug-In . SVG Version: 6.00 Build 0)  --> <svg version="1.1" id="Слой_1" xmlns="http://www.w3.org/2000/svg" xmlns:xlink="http://www.w3.org/1999/xlink" x="0px" y="0px" viewBox="0 0 93.8 70.7" enable-background="new 0 0 93.8 70.7" xml:space="preserve"> <g> <g> <path fill="#FFFFFF" d="M41.6,70.6H2.2c-0.8,0-1.4-0.3-1.4-1.1v-31c0-0.3,0.1-0.7,0.3-1L33.7,0.3c0.4-0.4,1.1-0.5,1.6-0.3 c0.4,0.1,0.8,0.7,0.8,1.2v20.3c0,0.3-0.1,0.4-0.3,0.5l-9.5,14.6h15.2c0.8,0,1.4,1,1.4,1.6v31.3C43,70.3,42.4,70.6,41.6,70.6z M3.5,67.8h36.7V39.3H23.9c-0.5,0-1-0.1-1.2-0.5c-0.3-0.4-0.3-1,0-1.4l10.6-16.3V4.7L3.5,38.9V67.8z"/> </g> <g> <path fill="#FFFFFF" d="M93.3,70.6H53.9c-0.8,0-1.4-0.3-1.4-1.1v-31c0-0.3,0.1-0.7,0.3-1L85.4,0.3C85.8-0.1,86.5-0.3,87,0 c0.4,0.1,0.8,0.7,0.8,1.2v20.3c0,0.3-0.1,0.4-0.3,0.5l-9.5,14.6h15.2c0.8,0,1.4,1,1.4,1.6v31.3C94.7,70.3,94.1,70.6,93.3,70.6z M55.2,67.8h36.7V39.3H75.6c-0.5,0-1-0.1-1.2-0.5c-0.3-0.4-0.3-1,0-1.4L85,21.1V4.7L55.2,38.9V67.8z"/> </g> </g> </svg>