<?xml version="1.0" encoding="utf-8"?>
<!-- Generator: Adobe Illustrator 18.1.1, SVG Export Plug-In . SVG Version: 6.00 Build 0)  -->
<svg version="1.1" id="Слой_1" xmlns="http://www.w3.org/2000/svg" xmlns:xlink="http://www.w3.org/1999/xlink" x="0px" y="0px"
	 viewBox="0 0 93.8 70.7" enable-background="new 0 0 93.8 70.7" xml:space="preserve">
<g>
	<g>
		<path fill="#FFFFFF" d="M53,0l39.4,0c0.8,0,1.4,0.3,1.4,1.1v31c0,0.3-0.1,0.7-0.3,1L60.9,70.3c-0.4,0.4-1.1,0.5-1.6,0.3
			c-0.4-0.1-0.8-0.7-0.8-1.2V49.1c0-0.3,0.1-0.4,0.3-0.5L68.3,34H53c-0.8,0-1.4-1-1.4-1.6V1.1C51.7,0.3,52.2,0,53,0z M91.1,2.7H54.4
			v28.6h16.3c0.5,0,1,0.1,1.2,0.5c0.3,0.4,0.3,1,0,1.4L61.3,49.5v16.3l29.8-34.1V2.7z"/>
	</g>
	<g>
		<path fill="#FFFFFF" d="M1.4,0l39.4,0c0.8,0,1.4,0.3,1.4,1.1v31c0,0.3-0.1,0.7-0.3,1L9.3,70.3c-0.4,0.4-1.1,0.5-1.6,0.3
			c-0.4-0.1-0.8-0.7-0.8-1.2V49.1c0-0.3,0.1-0.4,0.3-0.5L16.6,34H1.4C0.5,34,0,33,0,32.4L0,1.1C0,0.3,0.5,0,1.4,0z M39.4,2.7H2.7
			v28.6H19c0.5,0,1,0.1,1.2,0.5c0.3,0.4,0.3,1,0,1.4L9.7,49.5v16.3l29.8-34.1V2.7z"/>
	</g>
</g>
</svg>
