<?xml version="1.0" encoding="utf-8"?> <svg version="1.1" id="Слой_1" xmlns="http://www.w3.org/2000/svg" xmlns:xlink="http://www.w3.org/1999/xlink" x="0px" y="0px" viewBox="0 0 85.1 136.5" enable-background="new 0 0 85.1 136.5" xml:space="preserve"> <g> <g> <path fill="#ffc107" d="M56.9,63.7c1.4-2.5,2.1-5.4,2.1-8.3C59,45.8,51.2,38,41.6,38c-9.6,0-17.4,7.8-17.4,17.4 c0,3.2,0.9,6.4,2.6,9.1c3.2,5.2,8.7,8.3,14.8,8.3C48,72.8,53.9,69.3,56.9,63.7z M41.6,40.9c8,0,14.5,6.5,14.5,14.5 c0,1.7-0.3,3.4-0.9,5c-0.5-0.4-0.9-0.8-1.4-1.2c-0.1-0.1-0.3-0.2-0.4-0.3c-0.4-0.3-0.8-0.6-1.2-0.8c-0.2-0.1-0.4-0.2-0.6-0.4 c-0.4-0.2-0.7-0.4-1.1-0.6c-0.2-0.1-0.5-0.2-0.7-0.3c-0.4-0.2-0.7-0.3-1.1-0.4c-0.2-0.1-0.5-0.2-0.7-0.3c-0.1,0-0.2-0.1-0.3-0.1 l2.2-3c0.5-0.6,0.4-1.6-0.3-2c-0.6-0.5-1.6-0.4-2,0.3l-3.1,4.1c-0.1,0-0.2,0-0.4,0c-0.7-0.1-1.3-0.1-2-0.1c-0.7,0-1.4,0-2.1,0.1 c-0.2,0-0.5,0.1-0.7,0.1c-0.5,0.1-0.9,0.1-1.4,0.2c-0.3,0.1-0.5,0.1-0.8,0.2c-0.4,0.1-0.8,0.2-1.2,0.4c-0.3,0.1-0.5,0.2-0.8,0.3 c-0.4,0.2-0.8,0.3-1.1,0.5c-0.3,0.1-0.5,0.2-0.7,0.4c-0.4,0.2-0.7,0.4-1.1,0.6c-0.2,0.1-0.5,0.3-0.7,0.4c-0.4,0.3-0.7,0.5-1.1,0.8 c-0.2,0.1-0.4,0.3-0.5,0.4c-0.5,0.4-1,0.9-1.4,1.3c0,0-0.1,0.1-0.1,0.1c0,0,0,0,0,0c-0.8-1.8-1.2-3.8-1.2-5.8 C27.1,47.4,33.6,40.9,41.6,40.9z M41.6,69.9c-4.7,0-9-2.2-11.8-6c0.1-0.1,0.2-0.3,0.3-0.4c0.2-0.2,0.4-0.4,0.6-0.6 c0.2-0.2,0.5-0.5,0.7-0.7c0.2-0.2,0.4-0.4,0.6-0.5c0.3-0.2,0.5-0.4,0.8-0.6c0.2-0.2,0.4-0.3,0.7-0.4c0.3-0.2,0.6-0.3,0.9-0.5 c0.2-0.1,0.5-0.3,0.7-0.4c0.3-0.1,0.6-0.3,0.9-0.4c0.2-0.1,0.5-0.2,0.7-0.3c0.3-0.1,0.7-0.2,1-0.3c0.2-0.1,0.5-0.1,0.7-0.2 c0.4-0.1,0.8-0.1,1.2-0.2c0.2,0,0.4-0.1,0.6-0.1c0.6-0.1,1.2-0.1,1.8-0.1c0.6,0,1.2,0,1.7,0.1c0.2,0,0.4,0.1,0.6,0.1 c0.4,0.1,0.8,0.1,1.1,0.2c0.2,0,0.4,0.1,0.7,0.2c0.3,0.1,0.7,0.2,1,0.3c0.2,0.1,0.4,0.2,0.7,0.2c0.3,0.1,0.6,0.2,0.9,0.4 c0.2,0.1,0.4,0.2,0.7,0.3c0.3,0.1,0.6,0.3,0.8,0.4c0.2,0.1,0.4,0.3,0.6,0.4c0.3,0.2,0.5,0.3,0.8,0.5c0.2,0.1,0.4,0.3,0.6,0.5 c0.2,0.2,0.5,0.4,0.7,0.6c0.2,0.2,0.4,0.3,0.6,0.5c0.1,0.1,0.2,0.2,0.3,0.3C51.2,67.3,46.6,69.9,41.6,69.9z"/> <path fill="#ffc107" d="M85.1,105.5c-0.6-14.6-6.5-28-16.2-37.1c0.9-3.9,1.3-7.8,1.3-11.7c0-18.7-10-36-26-45.4V1.5 c0-0.8-0.6-1.5-1.5-1.5c-0.8,0-1.5,0.7-1.5,1.5v9.8c-16.1,9.5-26,26.8-26,45.4c0,3.8,0.4,7.6,1.3,11.4C6.6,77.1,0.6,90.6,0,105.3 c0,0.6,0.4,1.2,1,1.4c5.3,1.8,10.9,2.6,16.5,2.6l0.7,0c0.6,0,1.1-0.4,1.3-0.9c2.1-5,6.8-9.1,13-11.2L30,112.7 c-5.5,0.5-10,4.8-10.6,10.3C13.6,123.7,9,128.7,9,134.7c0,0.8,0.7,1.5,1.5,1.5c0.8,0,1.5-0.6,1.5-1.5c0-4.9,4-8.8,8.8-8.8 c0.8,0,1.5-0.7,1.5-1.5c0-4.4,3.2-8,7.3-8.7l-0.8,5c-0.1,0.8,0.4,1.5,1.2,1.7c0.1,0,0.2,0,0.2,0c0.7,0,1.3-0.5,1.4-1.2l3.9-24.7 c4.6-1,9.5-0.9,14,0.3l4,24.7c0.1,0.7,0.7,1.2,1.4,1.2c0.1,0,0.2,0,0.2,0c0.8-0.1,1.3-0.9,1.2-1.7l-0.8-5c4.1,0.7,7.3,4.3,7.3,8.7 c0,0.8,0.7,1.5,1.5,1.5c4.9,0,8.8,4,8.8,8.8c0,0.8,0.6,1.5,1.5,1.5c0.8,0,1.5-0.6,1.5-1.5c0-6-4.5-11-10.4-11.7 c-0.6-5.5-5.1-9.8-10.6-10.3l-2.4-15.2c5.5,2.2,9.6,6,11.6,10.6c0.2,0.5,0.7,0.9,1.3,0.9c0.8,0,1.7,0.1,2.5,0.1 c5.5,0,10.9-0.8,16-2.5C84.7,106.7,85.1,106.1,85.1,105.5z M17.2,106.5c-4.8,0-9.6-0.8-14.2-2.2c0.8-13,6-24.8,14.4-33.1 c0.1,0.3,0.2,0.6,0.3,0.9c0.1,0.5,0.3,0.9,0.5,1.4c0.3,0.8,0.5,1.5,0.8,2.2c0.2,0.4,0.3,0.9,0.5,1.3c0.3,0.8,0.7,1.6,1.1,2.4 c0.2,0.4,0.3,0.7,0.5,1.1c0.6,1.1,1.2,2.2,1.8,3.3c0.1,0.1,0.1,0.2,0.2,0.3c0.6,1,1.2,2,1.9,2.9c0.2,0.3,0.5,0.7,0.7,1 c0.5,0.7,1,1.4,1.6,2c0.3,0.4,0.6,0.7,0.9,1.1c0.5,0.6,1.1,1.2,1.6,1.8c0.3,0.3,0.7,0.7,1,1c0.2,0.2,0.4,0.4,0.6,0.6 C24.9,96.9,19.7,101.2,17.2,106.5z M41.8,92.9c-2.4,0-4.8,0.3-7.2,0.8c-0.4-0.4-0.8-0.8-1.2-1.2c-0.4-0.4-0.9-0.8-1.3-1.2 c-0.5-0.5-0.9-1-1.4-1.5c-0.4-0.4-0.8-0.9-1.1-1.3c-0.4-0.5-0.9-1.1-1.3-1.7c-0.3-0.5-0.7-0.9-1-1.4c-0.4-0.6-0.8-1.2-1.2-1.8 c-0.3-0.5-0.6-0.9-0.9-1.4c-0.4-0.6-0.7-1.3-1.1-1.9c-0.3-0.5-0.5-0.9-0.8-1.4c-0.3-0.7-0.6-1.4-1-2.1c-0.2-0.5-0.4-0.9-0.6-1.3 c-0.3-0.8-0.6-1.6-0.9-2.4c-0.1-0.4-0.3-0.8-0.4-1.1c-0.4-1.2-0.7-2.4-1-3.7c-0.9-3.8-1.4-7.7-1.4-11.5c0-17.6,9.4-34,24.6-43 c15.2,8.9,24.6,25.3,24.6,43c0,4-0.5,8-1.4,11.9c-0.3,1.3-0.7,2.5-1.1,3.7c-0.1,0.4-0.3,0.8-0.4,1.1c-0.3,0.8-0.6,1.7-0.9,2.5 c-0.2,0.5-0.4,0.9-0.6,1.4c-0.3,0.7-0.6,1.4-1,2.1c-0.2,0.5-0.5,0.9-0.8,1.4c-0.4,0.6-0.7,1.3-1.1,1.9c-0.3,0.5-0.6,0.9-0.9,1.4 c-0.4,0.6-0.8,1.2-1.2,1.8c-0.3,0.5-0.7,0.9-1.1,1.4c-0.4,0.5-0.8,1.1-1.3,1.6c-0.4,0.5-0.8,0.9-1.2,1.3c-0.5,0.5-0.9,1-1.4,1.5 c-0.4,0.4-0.9,0.8-1.3,1.2c-0.4,0.4-0.8,0.8-1.2,1.2C47.7,93.3,44.8,92.9,41.8,92.9z M66.5,106.5c-2.4-5-7-9-12.9-11.4 c0.2-0.2,0.4-0.5,0.7-0.7c0.4-0.3,0.7-0.7,1.1-1.1c0.6-0.6,1.1-1.2,1.7-1.8c0.3-0.4,0.6-0.7,0.9-1.1c0.6-0.7,1.1-1.4,1.6-2.1 c0.2-0.3,0.5-0.6,0.7-1c1.5-2.1,2.8-4.2,4-6.5c0.2-0.4,0.3-0.7,0.5-1.1c0.4-0.8,0.8-1.6,1.1-2.4c0.2-0.4,0.4-0.9,0.5-1.3 c0.3-0.8,0.6-1.5,0.9-2.3c0.2-0.5,0.3-0.9,0.5-1.4c0.1-0.3,0.2-0.6,0.3-0.9c8.2,8.3,13.3,20.1,14,32.9 C77.1,106,71.8,106.7,66.5,106.5z"/> </g> </g> </svg>