<?xml version="1.0" encoding="utf-8"?> <!-- Generator: Adobe Illustrator 18.1.1, SVG Export Plug-In . SVG Version: 6.00 Build 0)  --> <svg version="1.1" id="Слой_1" xmlns="http://www.w3.org/2000/svg" xmlns:xlink="http://www.w3.org/1999/xlink" x="0px" y="0px" viewBox="0 0 108.1 105.3" enable-background="new 0 0 108.1 105.3" xml:space="preserve"> <g id="Shape_284"> <g> <path fill="#FFFFFF" d="M29.3,105.3c-2.7,0-5.4-0.8-8.1-2.5c-8.2-5-5.4-13.8-2.9-21.5c1.6-5,3.3-10.2,2.1-14.1 c-1-3.3-4.5-5.7-8.1-8.2c-5-3.4-10.6-7.3-11.9-14.6c-0.7-3.7-0.1-6.9,1.6-9.3c3.4-4.8,10.4-5.9,16.5-6.8l1.2-0.2 c1.6-0.3,3.2-0.3,4.3-0.3l3.6,0c2.4,0,4.3-0.2,5.4-1.1c3-2.4,4.4-6.7,5.9-11.2c1.7-5,3.4-10.3,7.6-13.4c1.7-1.2,2.7-2,5.3-2.2h0 C64,0,66.6,8.2,68.9,15.5c1.7,5.2,3.2,10.1,8,12c1.7,0.7,3.7,0.5,5.5,0.4c1.8-0.1,3.6-0.1,5.4,0.2l2.5,0.4 c7.6,1.1,16.3,2.4,17.7,11.2c1.5,9.4-5.9,15.1-11.8,19.7C92.3,62.3,88.8,65,88,68c-0.8,3,0.7,7.8,2.1,12.4c2.7,8.9,6,20-5.7,23.6 c-1.8,0.6-3.6,0.8-5.3,0.8l0,0c-6.2,0-11-3.6-15.2-6.7c-3.2-2.4-6.2-4.6-9.4-5.2c-3.7-0.6-7.2,2.3-11,5.3 C39.5,101.6,34.9,105.3,29.3,105.3z M24,31.6c-1.5,0-2.7,0.1-3.7,0.2L19,32c-5.4,0.8-11.6,1.8-14,5.3c-1.2,1.6-1.5,3.7-1,6.4 c1,5.7,5.7,8.9,10.3,12.1c4,2.8,8.2,5.7,9.6,10.2c1.5,5-0.3,10.8-2.1,16.4c-2.7,8.5-4,13.9,1.2,17.1c2.1,1.3,4.2,1.9,6.1,1.9 c4.3,0,8.1-3.1,11.8-6.1c4.2-3.4,8.7-7,14-6.1c4.2,0.7,7.7,3.3,11.1,5.9c4.1,3.1,8,5.9,12.9,5.9l0,0c1.4,0,2.7-0.2,4.2-0.7 c7.5-2.3,6.2-8.7,3.1-18.9c-1.6-5.4-3.1-10.4-2.1-14.4c1.1-4.3,5.1-7.4,9.4-10.7c5.7-4.4,11.5-8.9,10.4-16.1 c-0.9-5.7-6.1-6.8-14.5-8.1l-2.5-0.4c-1.5-0.2-3.1-0.2-4.6-0.1c-2.2,0.1-4.6,0.3-7-0.7c-6.4-2.6-8.4-8.8-10.2-14.4 C63,9.5,61.2,3.8,52,3.8c-1.5,0.1-1.8,0.3-3,1.2c-3.5,2.6-4.9,7-6.5,11.7c-1.6,4.8-3.3,9.9-7.1,12.9c-2.3,1.8-5.2,2-7.8,2L24,31.6 z"/> </g> </g> </svg>